<svg xmlns="http://www.w3.org/2000/svg" viewBox="0 0 98.44 75.68"><defs><style>.cls-1{fill:#fff;}.cls-2{fill:#f7be00;}</style></defs><title>Ресурс 1</title><g id="Слой_2" data-name="Слой 2"><g id="Layer_1" data-name="Layer 1"><path class="cls-1" d="M13.9,72.36c.57-3,1.1-6.22,1.61-9.26-.15-.13-.55-.23-.7-.36v-.61H17.5v.61c-.17.13-.55.25-.7.38L14.62,75.53H12.51l-1.46-7.36L9.48,75.53h-2l-2-12.35c-.23-.15-.48-.29-.7-.44v-.61H8.28v.59l-.74.42,1.37,9.33h0c.07-.28.36-1.89,1.91-10h1.29l1.75,9.88Z"/><path class="cls-1" d="M19.65,63.22,19,62.7v-.57h3.36v.57l-.68.52v4.87h3V63.22L24,62.7v-.57h3.38v.57l-.68.52V74.41l.81.49v.57H23.84V74.9l.78-.49V69.23h-3v5.18l.83.49v.57H18.83V74.9l.82-.49Z"/><path class="cls-1" d="M32.3,74.31l.78.59v.57H29.47V74.9l.8-.59V63.22l-.68-.52v-.57H33v.57l-.68.52Z"/><path class="cls-1" d="M39.74,63.37V74.18l.79.61v.68H36.85v-.68l.8-.61V63.37H36.3l-.64,2.14h-.95l.06-3.38H42.6l.08,3.38h-1l-.68-2.14Z"/><path class="cls-1" d="M44.27,75.47V74.9l.82-.59V63.16l-.69-.53v-.5h6.81v3h-1l-.55-1.8H47.17v4.93H48.9l.53-1H50v3.22h-.59l-.53-1H47.17v4.13a.53.53,0,0,1-.43.59v.1h3.15l.68-1.77h.89v3Z"/><path class="cls-1" d="M61.14,74.33c1,0,1.38-.66,1.38-1.57v-1.6c0-2.46-4.78-1.51-4.78-4.83V64.71c0-2,1.5-2.73,3-2.73a2.72,2.72,0,0,1,2.14.8H63l.15-.68h1.36v3.6H62.45v-1a1.24,1.24,0,0,0-1.35-1.4c-.84,0-1.27.53-1.27,1.4v1.62c0,2.27,4.82,1.27,4.82,4.8v1.63c0,2.14-1.79,2.92-3.59,2.92s-3.45-.89-3.45-2.94v-1h2.26v1.05C59.87,73.88,60.34,74.33,61.14,74.33Z"/><path class="cls-1" d="M74.83,72.11c0,2.15-1.51,3.55-3.85,3.55s-3.85-1.42-3.85-3.55V65.47c0-2.14,1.5-3.56,3.85-3.56s3.85,1.4,3.85,3.56Zm-5.63,0c0,1.46.55,2.22,1.78,2.22s1.79-1,1.79-2.22V65.47c0-1.23-.57-2.22-1.79-2.22S69.2,64,69.2,65.47Z"/><path class="cls-1" d="M77.15,75.47V74.9l.83-.59V63.22l-.7-.52v-.57h3.44v.57l-.67.52V73.57c0,.31-.43.61-.43.61v.08h3l.67-1.77h.87l0,3Z"/><path class="cls-1" d="M85.55,75.47V74.9l.82-.59V63.16l-.7-.53v-.5h6.81v3h-1l-.55-1.8h-2.5v4.93h1.74l.53-1h.59v3.22h-.59l-.53-1H88.44v4.13a.52.52,0,0,1-.42.59v.1h3.15l.68-1.77h.89v3Z"/><path class="cls-2" d="M92.22,46.19a11.63,11.63,0,0,1-7.77,3,4.13,4.13,0,0,0,4.14-4.1,4,4,0,0,0-1.33-3c-.09-.09-.22-.17-.3-.26C68.67,26.48,68.32,26.13,68.32,26.13a10.94,10.94,0,0,1-3.66-8.45A11.77,11.77,0,0,1,68.54,9c2.07-1.81,1.23-2.38,4.2-2.38-2.28,0-.54,1.26-.54,3.54a4,4,0,0,0,1.34,3l.26.26,5.35,4.44L91.4,28.12c.34.3.73.6,1.08.9s.52.53.76.81V18.3L78.5,6H93.24V0H4.71V6.12H13L27.36,34.55l-7.47,14.7-15.18-30V55.29H93.24V45.16A12.39,12.39,0,0,1,92.22,46.19Zm-50.5,3.06L19.89,6.12H34.82L49.14,34.55ZM52.63,19.58a6.73,6.73,0,1,1,6.73-6.73A6.71,6.71,0,0,1,52.63,19.58Zm18.8,29.59a6.69,6.69,0,1,1,0-13.37,6.69,6.69,0,0,1,0,13.37Z"/><path class="cls-1" d="M15,1.83,29.43,30.39l-7.5,14.79L0,1.83Zm21.76,0L51.15,30.39,43.69,45.18,21.76,1.83ZM61.42,8.59a6.76,6.76,0,1,1-6.76-6.76A6.74,6.74,0,0,1,61.42,8.59Z"/><path class="cls-1" d="M98.44,33.44A11.78,11.78,0,0,1,86.71,45.13,4.14,4.14,0,0,0,90.86,41a4,4,0,0,0-1.34-3c-.09-.09-.22-.18-.3-.26C70.86,22.36,70.51,22,70.51,22a11,11,0,0,1-3.68-8.49A11.65,11.65,0,0,1,78.52,1.83,4.11,4.11,0,0,0,75.75,9a3.19,3.19,0,0,1,.26.26l5.37,4.46L93.68,24l1.08.91A11.78,11.78,0,0,1,98.44,33.44Zm-18.1,5a6.71,6.71,0,1,1-6.71-6.71A6.72,6.72,0,0,1,80.34,38.42ZM96.19,14.69,80.73,1.83H96.19Z"/></g></g></svg>